/* XPM */
static char *_280dba531ad4bb9e31e78c799e07e96[] = {
/* columns rows colors chars-per-pixel */
"32 32 223 2 ",
"   c #C3840C",
".  c #C8870C",
"X  c #CC8A0D",
"o  c #CD8A0D",
"O  c #CE8C0D",
"+  c #D08D0D",
"@  c #D28E0D",
"#  c #D3900D",
"$  c #D4900D",
"%  c #D5900D",
"&  c #D6910D",
"*  c #D5910E",
"=  c #D6910E",
"-  c #DE960E",
";  c #DE970E",
":  c #E0980E",
">  c #E39A0E",
",  c #E59B0E",
"<  c #E69C0F",
"1  c #E79D0F",
"2  c #E99F0F",
"3  c #EA9E0F",
"4  c #EA9F0F",
"5  c #ECA00F",
"6  c #EDA00F",
"7  c #EFA20F",
"8  c #FFA200",
"9  c orange",
"0  c #FFA600",
"q  c #FFA700",
"w  c #FFA701",
"e  c #FEA702",
"r  c #FFA702",
"t  c #FFA802",
"y  c #FFA803",
"u  c #FEA804",
"i  c #FFA804",
"p  c #FEA805",
"a  c #FFA906",
"s  c #FFA907",
"d  c #F0A20F",
"f  c #F0A30F",
"g  c #FEA908",
"h  c #FFA908",
"j  c #FFAA08",
"k  c #FFAA09",
"l  c #FEAA0A",
"z  c #FFAA0A",
"x  c #FFAB0B",
"c  c #FFAC0A",
"v  c #FFAB0C",
"b  c #FFAB0D",
"n  c #FEAC0E",
"m  c #FFAC0E",
"M  c #FEAC0F",
"N  c #FFAC0F",
"B  c #F0A411",
"V  c #F3A510",
"C  c #F5A610",
"Z  c #F5A710",
"A  c #F7A710",
"S  c #F7A810",
"D  c #F8A810",
"F  c #F9A810",
"G  c #F9A910",
"H  c #FAA910",
"J  c #F9AA10",
"K  c #FAAA10",
"L  c #FBAA10",
"P  c #FCAB10",
"I  c #FDAB10",
"U  c #FCAC10",
"Y  c #FDAC10",
"T  c #FEAC10",
"R  c #FFAC10",
"E  c #FEAD10",
"W  c #FFAD10",
"Q  c #FEAC11",
"!  c #FEAD11",
"~  c #FFAD11",
"^  c #FFAE10",
"/  c #FEAE11",
"(  c #FFAE11",
")  c #FEAF11",
"_  c #FFAF11",
"`  c #FEAD12",
"'  c #FFAD12",
"]  c #FEAD13",
"[  c #FFAD13",
"{  c #FFAE12",
"}  c #FFAE13",
"|  c #FEAD14",
" . c #FEAE14",
".. c #FFAE14",
"X. c #FFAE15",
"o. c #FFAE16",
"O. c #FFAF17",
"+. c #FFAF18",
"@. c #FFB010",
"#. c #FFB011",
"$. c #FFB012",
"%. c #FFB013",
"&. c #FFB01A",
"*. c #FFB11D",
"=. c #FFB11F",
"-. c #FFB220",
";. c #FFB221",
":. c #FFB323",
">. c #FFB325",
",. c #FFB427",
"<. c #FFB528",
"1. c #FFB62C",
"2. c #FEB62D",
"3. c #FFB62D",
"4. c #FFB72F",
"5. c #FFB831",
"6. c #FFB833",
"7. c #FFBA37",
"8. c #FFBA38",
"9. c #FFBA39",
"0. c #FFBD41",
"q. c #FFBD42",
"w. c #FFBE43",
"e. c #FFBF45",
"r. c #FFBF46",
"t. c #FFBF48",
"y. c #FFC24E",
"u. c #FFC24F",
"i. c #FFC456",
"p. c #FEC558",
"a. c #FFC558",
"s. c #FFC559",
"d. c #FFC65C",
"f. c #FFC75F",
"g. c #FFC85F",
"h. c #FFC860",
"j. c #FFC861",
"k. c #FFC964",
"l. c #FFCA66",
"z. c #FFCA67",
"x. c #FFCA68",
"c. c #FFCB68",
"v. c #FFCB69",
"b. c #FFCB6A",
"n. c #FFCB6B",
"m. c #FFCB6C",
"M. c #FFCC6C",
"N. c #FFCC6D",
"B. c #FFCD6F",
"V. c #FFCD70",
"C. c #FFCE71",
"Z. c #FFCE72",
"A. c #FFCF74",
"S. c #FFD077",
"D. c #FFD078",
"F. c #FFD079",
"G. c #FFD17A",
"H. c #FFD17C",
"J. c #FFD27D",
"K. c #FFD586",
"L. c #FFD688",
"P. c #FFD88E",
"I. c #FFD992",
"U. c #FFD993",
"Y. c #FFDA96",
"T. c #FFDB98",
"R. c #FFDD9E",
"E. c #FFDEA1",
"W. c #FFDEA2",
"Q. c #FFE0A6",
"!. c #FFE0A7",
"~. c #FFE0A8",
"^. c #FFE1A8",
"/. c #FFE2AB",
"(. c #FFE3AE",
"). c #FFE5B4",
"_. c #FFE5B5",
"`. c #FFE6B7",
"'. c #FFE7BB",
"]. c #FFE8BD",
"[. c #FFE9C1",
"{. c #FFEAC3",
"}. c #FFEBC7",
"|. c #FFECC8",
" X c #FFECC9",
".X c #FFEDCC",
"XX c #FFEDCD",
"oX c #FFEECE",
"OX c #FFEECF",
"+X c #FFEED0",
"@X c #FFF0D5",
"#X c #FFF1D6",
"$X c #FFF1D7",
"%X c #FFF4DF",
"&X c #FFF4E1",
"*X c #FFF5E3",
"=X c #FFF5E4",
"-X c #FFF6E5",
";X c #FFF7E9",
":X c #FFF7EA",
">X c #FFF8EC",
",X c #FFF8ED",
"<X c #FFF9EE",
"1X c #FFF9EF",
"2X c #FFF9F0",
"3X c FloralWhite",
"4X c #FFFAF1",
"5X c #FFFBF3",
"6X c #FEFCF6",
"7X c #FFFCF6",
"8X c #FFFCF7",
"9X c #FEFCF8",
"0X c #FFFCF8",
"qX c #FFFDF9",
"wX c #FFFDFA",
"eX c #FFFDFB",
"rX c #FFFDFC",
"tX c #FFFEFC",
"yX c #FFFEFD",
"uX c #FFFEFE",
"iX c #FFFFFE",
"pX c gray100",
"aX c None",
/* pixels */
"aXaXaXaXaXaXaXaXaXaXaXaX, 3 6 6 4 1 ; + aXaXaXaXaXaXaXaXaXaXaXaX",
"aXaXaXaXaXaXaXaXaX6 A L Y Y Y %.%.Y Y L f > aXaXaXaXaXaXaXaXaXaX",
"aXaXaXaXaXaXaXd L Y %.Y Y Y Y Y Y Y Y Y %.Y S : aXaXaXaXaXaXaXaX",
"aXaXaXaXaXaXA Y Y Y Y Y Y ..Y Y ..Y Y Y Y Y Y %.7 . aXaXaXaXaXaX",
"aXaXaXaXaXL Y Y Y Y Y ..%.Y %.Y Y Y ..Y Y Y Y Y %.S O aXaXaXaXaX",
"aXaXaXaXL Y ..Y Y Y Y Y Y Y Y Y ..Y Y Y Y %.Y Y M %.K . aXaXaXaX",
"aXaXaXL Y M i &.Y Y Y Y Y ..Y ..Y Y Y %.Y Y Y Y %.Y %.Z   aXaXaX",
"aXaXY Y M ..W.-X4.x &.....%.Y Y Y %.Y Y ..%.Y M i y i %.5 aXaXaX",
"aXaXY ..u W.pX7X4.e e e e e g Y Y Y Y Y Y y g 5.u.d.e.Y Y * aXaX",
"aXY Y g 9.eXpX7X4.>.B.Y.U.f.;.y Y Y ..M g b.+XeXpXpX8X2.x B aXaX",
"aXY ..i f.pXpX2Xd.2XpXpXpXpX2XP...M b ..].pXpXeXeXpX8X2.g %.# aX",
"aXY ..e f.pXpX>Xz.pXpXpXpXeXpXpXXX=.Y ].pXeXeXpXeXpX8X2.g %.1 aX",
"Y Y ..e f.pXpX>Xz.pX<X{.|.2XpX8XpX^.d.pXeXpX%XB.w.w.e.%.Y %.A aX",
"Y Y ..e g.pXpX>Xm.R.=.g g >.).pXeXpXb.@XpX$X=.e i g i Y Y Y K . ",
"Y ....y g.pXpX7X7.i x ....g M  XpXpXW.U.pXe.e +.......Y Y Y Y * ",
"Y Y ..y f.pXpX8X4.g ..Y Y ..y d.pXpXXXS.*XY ......Y ..Y Y Y Y * ",
"..Y Y y f.pXpX7X4.M Y Y Y Y i e.pXpX-XV.XXe e e i Y Y Y Y Y %.* ",
"Y Y ..y i.pXeXpX5.g ..Y Y ..y f.pXpX%Xb.;XB.V.G.u.g ..Y Y Y Y * ",
"Y Y Y M >.2XpXpXT.e Y ....Y e ).pXpX).B.pXeXeXpX^.e ..Y Y Y Y * ",
"Y ..Y ..e ^.pXeXpXH.y y y M K.pXeXpXB.W.pXeXeXpX^.e ..Y Y Y D aX",
"aXY Y ..g 7.eXpXeXpX|.L.U.$XpXeXpX@Xt.pX*Xf.z.b.y.M ..Y Y %.f aX",
"aXY Y Y ..y B.pXeXeXpXpXpXpX8XpXpXi.).pX Xe y y y Y Y %.Y Y > aX",
"aX....Y Y ..y z.<XpXpXpXpXeXpX>Xw.f.pXpXXXb ....Y M Y Y Y L aXaX",
"aXaXY Y Y Y Y y :.S.W.'.{.!.B.=.8 H.pXpXXXb Y Y Y Y Y Y Y 3 aXaX",
"aXaXY Y ..Y Y ..M y y g g y y Y y S.pXpXR.y %.Y Y Y Y Y L aXaXaX",
"aXaXaXY Y Y Y Y Y ..Y Y Y Y ....e G.pX%X2.b ..Y Y Y Y Y 1 aXaXaX",
"aXaXaXaXY Y ..Y Y ..Y Y %.Y %.%.y z./.:.i Y Y Y Y Y Y 7 aXaXaXaX",
"aXaXaXaXaX..Y Y Y %.Y ..Y Y Y Y M M e M ..Y Y Y %.Y B aXaXaXaXaX",
"aXaXaXaXaXaXY ..Y Y ..Y Y ..Y Y M Y ..Y Y Y Y ..P f aXaXaXaXaXaX",
"aXaXaXaXaXaXaXY Y ..Y Y Y Y Y Y Y Y Y Y Y Y Y L aXaXaXaXaXaXaXaX",
"aXaXaXaXaXaXaXaXaXY Y Y Y %.Y ..Y Y %.Y Y L aXaXaXaXaXaXaXaXaXaX",
"aXaXaXaXaXaXaXaXaXaXaXaXY Y Y Y Y P Y L aXaXaXaXaXaXaXaXaXaXaXaX"
};
