/* XPM */
static char *f25d5b9fe8a24ed5b0e905305c70ea6e[] = {
/* columns rows colors chars-per-pixel */
"128 128 64 1 ",
"  c #A36E0A",
". c #A6700A",
"X c #AC740B",
"o c #B0770B",
"O c #B47A0B",
"+ c #BA7E0B",
"@ c #BD800C",
"# c #C3840C",
"$ c #C8870C",
"% c #CC8A0D",
"& c #D28E0D",
"* c #D6910D",
"= c #DC950E",
"- c #E0970E",
"; c #E39A0E",
": c #E99E0F",
"> c #EDA10F",
", c #FFA701",
"< c #FFA804",
"1 c #F3A40F",
"2 c #F7A80F",
"3 c #FFAB0C",
"4 c #F6A710",
"5 c #F8A710",
"6 c #FFAD11",
"7 c #FFAF19",
"8 c #FFB01D",
"9 c #FFB323",
"0 c #FFB52B",
"q c #FFB731",
"w c #FFB834",
"e c #FFBB3C",
"r c #FFBE44",
"t c #FFBF49",
"y c #FFC14B",
"u c #FFC454",
"i c #FFC75E",
"p c #FFC760",
"a c #FFC965",
"s c #FFCB6B",
"d c #FFCF74",
"f c #FFD17C",
"g c #FFD484",
"h c #FFD78B",
"j c #FFD88F",
"k c #FFD994",
"l c #FFDC9B",
"z c #FFDFA4",
"x c #FFE0A6",
"c c #FFE1AA",
"v c #FFE4B2",
"b c #FFE7BA",
"n c #FFE8BE",
"m c #FFE9C2",
"M c #FFEDCB",
"N c #FFEFD3",
"B c #FFF0D5",
"V c #FFF2DB",
"C c #FFF5E3",
"Z c #FFF7E9",
"A c #FFF8ED",
"S c #FFFBF4",
"D c #FFFFFE",
"F c None",
/* pixels */
"FFFFFFFFFFFFFFFFFFFFFFFFFFFFFFFFFFFFFFFFFFFFFFFFFFFFFFFFFFF@o@@@ooooFFFFFFFFFFFFFFFFFFFFFFFFFFFFFFFFFFFFFFFFFFFFFFFFFFFFFFFFFFFF",
"FFFFFFFFFFFFFFFFFFFFFFFFFFFFFFFFFFFFFFFFFFFFFFFFFFFF#$%&&*--======**&%$#@OoFFFFFFFFFFFFFFFFFFFFFFFFFFFFFFFFFFFFFFFFFFFFFFFFFFFFF",
"FFFFFFFFFFFFFFFFFFFFFFFFFFFFFFFFFFFFFFFFFFFFFFF#&*=-:114363626666662222>>-*%@@OXFFFFFFFFFFFFFFFFFFFFFFFFFFFFFFFFFFFFFFFFFFFFFFFF",
"FFFFFFFFFFFFFFFFFFFFFFFFFFFFFFFFFFFFFFFFFFFF%*;:12666666666666666666666666621>=%@@@FFFFFFFFFFFFFFFFFFFFFFFFFFFFFFFFFFFFFFFFFFFFF",
"FFFFFFFFFFFFFFFFFFFFFFFFFFFFFFFFFFFFFFFFF*=;>266666666666666666636266636666663621;&@@XFFFFFFFFFFFFFFFFFFFFFFFFFFFFFFFFFFFFFFFFFF",
"FFFFFFFFFFFFFFFFFFFFFFFFFFFFFFFFFFFFFF**;1266626366663266666666666666666666666666622=&#oXFFFFFFFFFFFFFFFFFFFFFFFFFFFFFFFFFFFFFFF",
"FFFFFFFFFFFFFFFFFFFFFFFFFFFFFFFFFFFF=;>26666666666666666666666666666666666623666666662>=@@ FFFFFFFFFFFFFFFFFFFFFFFFFFFFFFFFFFFFF",
"FFFFFFFFFFFFFFFFFFFFFFFFFFFFFFFFFF=;16666666666666666666666666666666666666666666266666621-@o.FFFFFFFFFFFFFFFFFFFFFFFFFFFFFFFFFFF",
"FFFFFFFFFFFFFFFFFFFFFFFFFFFFFFFF=:266666666666666666666666666666666666666666666666666666622;#XXFFFFFFFFFFFFFFFFFFFFFFFFFFFFFFFFF",
"FFFFFFFFFFFFFFFFFFFFFFFFFFFFFFF;6626666666666666666666666666666666666666666666666666666666222=#XFFFFFFFFFFFFFFFFFFFFFFFFFFFFFFFF",
"FFFFFFFFFFFFFFFFFFFFFFFFFFFFF->5666626666666666666666666666666666666666666666666666666666666222=@.FFFFFFFFFFFFFFFFFFFFFFFFFFFFFF",
"FFFFFFFFFFFFFFFFFFFFFFFFFFFF:2666666666666666666666666666666666676666666666666666666666666666666-@oFFFFFFFFFFFFFFFFFFFFFFFFFFFFF",
"FFFFFFFFFFFFFFFFFFFFFFFFFF;>666666666666666666666666666666666666666666666666666666666666666666663>&O.FFFFFFFFFFFFFFFFFFFFFFFFFFF",
"FFFFFFFFFFFFFFFFFFFFFFFFF:2666666666666666666666666666666666666666666666666666666666666666666666662-@.FFFFFFFFFFFFFFFFFFFFFFFFFF",
"FFFFFFFFFFFFFFFFFFFFFFFF>563666666666666666666666666666666666666666666666666666666666666666666666262>#XFFFFFFFFFFFFFFFFFFFFFFFFF",
"FFFFFFFFFFFFFFFFFFFFFF;1662666666666666666666666666666666766666666666666666666666666666666666666666661&o FFFFFFFFFFFFFFFFFFFFFFF",
"FFFFFFFFFFFFFFFFFFFFF:266666666666666666666666666666666666666666666666666666666666666666666666666663654=O.FFFFFFFFFFFFFFFFFFFFFF",
"FFFFFFFFFFFFFFFFFFFF:46665666666666666666666666666666666766666666666666666666666666666666666666666666664=O.FFFFFFFFFFFFFFFFFFFFF",
"FFFFFFFFFFFFFFFFFFF>2666666666666666666666666666666666666666666666666666666666666666666666666666666666665;+.FFFFFFFFFFFFFFFFFFFF",
"FFFFFFFFFFFFFFFFFF>566666666666666666666666666666666666666666666666666666666667666666666666666666666666566;+.FFFFFFFFFFFFFFFFFFF",
"FFFFFFFFFFFFFFFFF>63636666666666666666666666666666666666666666666666666676666666666666666666666666666663664;+ FFFFFFFFFFFFFFFFFF",
"FFFFFFFFFFFFFFFF>6666666666666666666666666666666666666666666666666666666666666666666666666666666666666663665;+ FFFFFFFFFFFFFFFFF",
"FFFFFFFFFFFFFFF>566666666666666666666666666666666666666666666666666666666666666666666666667666666666666666662=O FFFFFFFFFFFFFFFF",
"FFFFFFFFFFFFFFF46666666666666666666666666666666666666666666666666666666666666666666666666666666666666666666662*OFFFFFFFFFFFFFFFF",
"FFFFFFFFFFFFFF4666666666666666666666666666666666666666666666666666666666666666666666666666666666666666666666662%XFFFFFFFFFFFFFFF",
"FFFFFFFFFFFFF23666666666666666666666666666666666666666666666666666666666666666666666666666666666666666666666366>$.FFFFFFFFFFFFFF",
"FFFFFFFFFFFF1666666666666666666666666666666666666666666666666666666666666666666666666666666666666666666666666566>@ FFFFFFFFFFFFF",
"FFFFFFFFFFF>566666666666666<,677666666666666666666666666666666666666666666666666666666666666666666666666666666666=O FFFFFFFFFFFF",
"FFFFFFFFFFF66666666666667<6ykmBCu366666666666666666666666666666666666666666666666666666666666666666666666666666664&XFFFFFFFFFFFF",
"FFFFFFFFFF46666666666666<ymDDDDDa366666666666666666666666666666666666666666666666666666666666666666666666666666663>@.FFFFFFFFFFF",
"FFFFFFFFFF6666666666666<hDDDDDDDa3666666666666666766666666666666666666666666666666666666666666666666666666666665666;OFFFFFFFFFFF",
"FFFFFFFFF26636666666663lDDSDDDDDa36666666666666666666666666666666666666666666666666666666666666666666666666666636662%XFFFFFFFFFF",
"FFFFFFFF4666666666666<hDDDDDDDDDp<7366666666666666666666666666666666666666666666666666666666366666676766766666666666>+ FFFFFFFFF",
"FFFFFFFF665666666666<iDDDDDDDDDDa,6666666666666666666666666666666666666666666666666666666666676763<<<<3<<366666666665=XFFFFFFFFF",
"FFFFFFF56666666666668BDDDDDDDDDDa,7366666666666666666666666666666666666666666666666666666666<<,<60qeerreq97<366666666># FFFFFFFF",
"FFFFFFF563666666666<fDDDDDDDDDDDa,7666636666676666666666666666666666666666666666666666667<,6qigvMVADDDDSAVMce<66666665=oFFFFFFFF",
"FFFFFF23666666666639BDDDDDDDDDDDa,7666666766<<<<,<<367766666666666666666666666666666666<<wfmADDDDDDDDDDDDDDDp,66666666>#.FFFFFFF",
"FFFFFF666666666666,sDDDDDDDDDDDDa<666673<,<7qrupiue9<,<367666666666766666666666666367<6uvSDDDDDDDDDDDDDDDDSDp,766365666=XFFFFFFF",
"FFFFF5666666666666<nDDDDDDDDDDDDa,766<<7rfvNADDDDDDVvgt7<<6663666666666666666666367<<umSDDDDDDDDDDDDDDDDDDDDp,666666666># FFFFFF",
"FFFFF666666666667<eSDDDDDDDDDDDDa<6<3rkBDDDDDDDDDDDDDDDNky7,3766666666666666666667<qxDDDDDDDDDDDDDDDDDDDDDDDp,6666666365*XFFFFFF",
"FFFF2666666666667,iDDDDDDDDDDDDDa<6amSDDDDDDDDDDDDDDDDDDDDMs9<3666666666666666666<aZDDDDDDDDDDDDDDDDDDDDDDDDp,7666666666>+ FFFFF",
"FFFF3663666666666,pDDDDDDDDDDDDDs,8VDDDDDDDDDDDDDDDDDDDDDDDDBd7,666666666666667<7kDDDDDDDDDDDDDDDDDDDDDDDDDDp,66666666665%.FFFFF",
"FFFF3666666666667,iDDDDDDDDDDDDDa,8BDDDDDDDDDDDDDDDDDDDDDDDDDDMu<6666666666667<9bDDDDDDDDDDDDDDDDDDDDDDDDDDDi,66666666656;OFFFFF",
"FFF26666666666666,pDDDDDDDDDDDDDa,8BDDDDDDDDDDDDDDDDDDDDDDDDDDDDl736666666636<9MDDDDDDDDDDDDDDDDDDDDDDDDDDDDi,766666666661@ FFFF",
"FFF66666666666667,pDDDDDDDDDDDDDa,8VDDDDDDDDDDDDDDDDDDDDDDDDDDDDDmq<66666667<9mDDDDDDDDDDDDDDDDDDDDDDDDDDDDDi,666666666365*.FFFF",
"FFF66666666666666,pDDDDDDDDDDDDDa,8VDDDDDDDDDDDDDDDDDDDDDDDDDDDDDDCr<66666637vDDDDDDDDDDDDDDDDDDDDDDDDDDDDDDp,666666666666;OFFFF",
"FF566666666666637,iDDDDDDDDDDDDDa,8VDDDDDDDDDDDDDDDDDDDDDDDDDDDDDDDZy<66666<kDDDDDDDDDDDDDDDDDDDDDDDDDDDDDSDi<7666666666661@ FFF",
"FF666666666666666,iDDDDDDDDDDDDDa,8VDDDDDDDDDDDDDDDDDDDDDDDDDDDDDDSDCw3637<sDDDDDDDDDDDDDDDDDDDDDDDDDDDDDDDDp,6666666666665%.FFF",
"FF566666666666666<pDDDDDDDDDDDDDa,8VDDDDDDDDDDDDDDDDDDDDDDDDDDDDDDDDDN867<wZDDDDDDDDDDDDDDDDDDDDCMnnnnnnnnnmy<6666666666663=XFFF",
"FF666666666666666<pDDDDDDDDDDDDDa,8VDDDDDDDSDDDDDDDDDDDDDDDDDDDDDDDDDDx<63vDDDDDDDDDDDDDDDDDSnde866666666666666666666666663>@FFF",
"F6366666666666666<iDDDDDDDDDDDDDa<8VDDDDDDDDDSZCCSDDDDDDDDDDDDDDDDDDDDDs<3zDDDDDDDDDDDDDDDDby6,<3666663666666666666666666661#.FF",
"F6666666666666666<iDDDDDDDDDDDDDa,8VDDDDDDMhue090wralBDDDDDDDDDDDDDDDDDV0<0ADDDDDDDDDDDDDAd<<6766666666666666666666666666662$.FF",
"F6666666666666667,iDDDDDDDDDDDDDa,8VDSDDcy6<<33333<,<9sBDDDDDDDDDDDDDDDDj3<jDDDDDDDDDDDDCr,666666666666666637666666666666665=XFF",
"F6666666666666636,pDDDDDDDDDDDDDs,8BDDBy3<66666666667<<8kDDDDDDDDDDDDDDDAw,wADDDDDDDDDDCe,7666666666666666666666666666666666;oFF",
"F6666666666666667,iDDDDDDDDDDDDDa,8BDc8<6666666666666673<sSDDDDDDDDDDDDDDj<3zDDDDDDDDDSy,66666666666666666666666666666666666:+FF",
"F3666666666666666,iDDDDDDDDDDDDDa,8Cx3<766666666666666666,pSDDDDDDDDDDDDDV9,uDDDDDDDDDf,7666666666666666666666666666666666661@FF",
"66666666666666667,pDDDDDDDDDDDDDa,9k7366666666666666666667,dDDDDDDDDDDDDDDp<8BDDDDDDDb666666666666666666666666666666666663661# F",
"56666666666666666,pDDDDDDDDDDDDDa,7766666666666666666666666<lDDDDDDDDDDDDDc3<kDDDDDDSr<66666666666666666666666666666666666666$.F",
"56666666666666667,pDDDDDDDDDDDDDa<636666666666666666666666639BDDDDDDDDDDDDV9,uDDDDDDx<766666666666666666666666666666666666566&XF",
"66666666666666666,pDDDDDDDDDDDDDa,66666666666666666666666666,aDDDDDDDDDDDDDt,0ZDDDDDt<666666666666666666666666666666666666666*XF",
"66666666666666666,pDDDDDDDDDDDDDa,6666666666666666666666666666MDDDDDDDDDDDDf,6mDSDDm66666666666666666666666666666666666663666*XF",
"56666666666666667,pDDDDDDDDDDDDDa<666666666666666666666666667,aDDDDDDDDDDDDz<3kDDDDf<6666666666666666666666666666666666662666=XF",
"66666666666666666<pDDDDDDDDDDDDDa,76666666666666666666666666639CDDDDDDDDDDDM6,dDSDDu<6666666666666666666666666666666666666666;O ",
"66666666666666667,pDSDDDDDDDDDDDa<66666666666666666666666666668VDDDDDDDDDDDV9,uDDDDi<6666666666666666666666666666666666666666;o.",
"66666666666666667,iDDDDDDDDDDDDDa<66666666666666666666666666666NDDDDDDDDDDDAq,eDDDDu,7366666666666666666666666666666666666666:@ ",
"66666666666666666,iDDDDDDDDDDDDDa366666666666666666666666666637NDDDDDDDDDDDSe,qZDDDu,6666666666666666666666666666666666666666:@ ",
"66666666666666667,iDDDDDDDDDDDDDa<66666666666666666666666666667BDDDDDDDDDDDDy,qCDDDu<6666666636666666666666666666666666666666;.F",
"66666666666666666,iDDDDDDDDDDDDDa<666666666666666666666666666<9CDDDDDDDDDDDDr,0CDDDu<7666666666666666666666666666666666666666=@F",
"66666666666666667,pDDDDDDDDDDDDDa<666666666666666666666666666<eADDDDDDDDDDDDr,0CDDDu<6666676667667666666666666666666666666662=@F",
"66666666666666666,iDDDDDDDDDDDDDa<666666666666666666666666666<uDDDDDDDDDDDDDe,qZDDDt,3<<<<<<<<<<<<<76666666666666666666666666*oF",
"66666666666666666<wSDDDDDDDDDDDDk<666666666666666666666666667,gDDDDDDDDDDDDC0,eDDDDmxczcxxcxcxcxxvp<6666666666666666666666366*.F",
"6666666666666666667BDDDDDDDDDDDDV96666666666666666666666666663vDDDDDDDDDDDDm6<yDDDDDDDDDDDDDDDDDDDk,6666666666666666666666662%XF",
"F66666666666666667<zDDDDDDDDDDDDDs,7666666666666666666666666<wADDDDDDDDDDDDk<<dDDDDSDDDDSDDDDDSDDDg,6666666666666666666666661$FF",
"F66666666666666666<pDDDDDDDDDDDDDB83666666676666666666666666,hDDDDDDDDDDDDDu<<kDDDDDDDDDDDDDDDDDDDj,7666666666666666666666661#FF",
"F66666666666666666<0CDDDDDDDDDDDDDl<66666666666666666666667<0CDDDDDDDDDDSDC0<7mDDDDDDDDDDDDDDDDDDDj,666666666666666666666266>@FF",
"F666666666666666667<xDDDDDDDDDDDDDDa,6666666666666666666666<kDDDDDDDDDDDDDv360ADDDDDDDDDDDDDDDDDDDj,666666666666666666666366:OFF",
"F666666666666666666<uDDDDDDDDDDDDDDSy,76666666666666666667,pDDDDDDDDDDDDDDs<<aDDDDDDDDDDDDDDDDDDDDh,666666666666666666666666=OFF",
"F66666666666666666637MDDDDDDDDDDDDDDCr,666666666666666666,iSDDDDDDDDDDDDDC03<cDDDDDDDDDDDDDDDDDDDDj,666666666666666666666665&XFF",
"FF666666666666666667,dDDDDDDDDDDDDDDDZu,6666666666666663<fSDDDDDDDDDDDDDDl<60ZDDDDDDDDDDDDDDDDDDSDh,766666666766666666666664$FFF",
"FF66666666666666666639BDDDDDDDDDDDDDDDSg6<66766666666<<ynDDDDDDDDDDDDDDDSr3<fDDDDDDDDDDDDDDDDDDDDDh,66666666666666666666366>@FFF",
"FF6666666666666666666,dDDDDDDDDDDDDDDDDDMi7,,<3333<,7rzSDDDDDDDDDDDDDDDDc368BDDDDDDDDDDDDDDDDDDDSDj<66666666666666666666666=@FFF",
"FF666666666666666666667MDDDDDDDDDDDDDDDDDDNhiq999wijMDDDDDDDDDDDDDDDDDDSr<<dDDDDDDDlsdddddddddddddy366666666666666666666666*XFFF",
"FFF6666666666666666666<uDDDDDDDDDDDDDDDDDDDDDSZCZSDDDDDDDDDDDDDDDDDDDDDk<69BDDDDDDDt,<<<,<<,<,<,<<3676666666666666666666361#FFFF",
"FFF66666666666666666666<kDDDDDDDDDDDDDDDDDDDDDDDDDDDDDDDDDDDDDDDDDDDDDV96<jDDDDDDDDu<7676767766766666666666666666666666666:@FFFF",
"FFF6666666666666666666667MDDDDDDDDDDDDDDDDDDDDDDDDDDDDDDDDDDDDDDDDDDDDu<<rSDDDDDDDDu<6666666666666666666666666666666666666=OFFFF",
"FFFF66666666666666666666<wZDDDDDDDDDDDDDDDDDDDDDDDDDDDDDDDDDDDDDDDDDDg<67MDDDDDDDDDi,7666666666666666666666666666666666664$FFFFF",
"FFFF666666666666666666667<uSDDDDDDDDDDDDDDDDDDDDDDDDDDDDDDDDDDDDDDDDz37<kDDDDDDDDDDu,636666666666666666666666666666666666:@FFFFF",
"FFFF6665666666666666666666,iSDDDDDDDDDDDDDDDDDDDDDDDDDDDDDDDDDDDDSDv76,sDDDDDDDDDDDu<766666666666666666666666666666666666*OFFFFF",
"FFFFF6666666666667666666666<uADDDDDDDDDDDDDDDDDDDDDDDDDDDDDDDDDSDDz633uSDDDDDDDDDDDu<66666666666666666666666666666666666>#FFFFFF",
"FFFFF66666666666666666666666<eNDDDDDDDDDDDDDDDDDDDDDDDDDDDDDDDDDSg3673nDDDDDDDDDDDDu<76666666666666666666666666666663366-OFFFFFF",
"FFFFFF6666666666666666666666638zSDDDDDDDDDDDDDDDDDDDDDDDDDDDDDSBu3666<mDDDDDDDDDDDDu<66666666666666666666666666666666662%FFFFFFF",
"FFFFFF66666666666666666666636633umDDDDDDDDDDDDDDDDDDDDDDDDDDDZh8,6667<mDDDDDDDDDDDDu,6666666666666666666666666666666656;@FFFFFFF",
"FFFFFFF6666666666666666666666666<6pmSDDDDDDDDDDDDDDDDDDDDDDCjw36666663mDDDDDDDDDDDDu<6666666666666666666666666666666662%FFFFFFFF",
"FFFFFFF666666666666666666666666666<3rjMADDDDDDDDDDDDDDDDCvs96666666663mDDDDDDDDDDDDu3666666666666666666666666666666666:@FFFFFFFF",
"FFFFFFFF6666666666666666666666666666<<6wudlvmBCASACBnxfu0<,<6666666663mDSDDDDDDDDDDu,666666666666667666666666666666664%FFFFFFFFF",
"FFFFFFFF6666666666666666666666666666676<<<<<689000986<,,66676666666663mDDDDDDDDDDDDt<66666666666666666666666666666666;@FFFFFFFFF",
"FFFFFFFFF6666666666666666666666666666666666666633336666666666666666663mDDDDDDDDDDDC9666666666666666666666666666666661%FFFFFFFFFF",
"FFFFFFFFFF666666666666666666666666666666666666666666666666666666666663mDDDDDDDDDSDz<66666666666666666666666666666662=FFFFFFFFFFF",
"FFFFFFFFFF666666666666666666666666666666666666666666666666666666666666mDDDDDDDDDDDu<6666666666666666666666666666666>$FFFFFFFFFFF",
"FFFFFFFFFFF6666666666666666666666666666666666666666666666666666666666<mDDDDDDDDDDn666666666666666666666666666666662&FFFFFFFFFFFF",
"FFFFFFFFFFF66666666666666666666666666666666666666666666666666666666663mDDDDDDDDDSy<7666666666666666666666666666662-@FFFFFFFFFFFF",
"FFFFFFFFFFFF6666666666666666676666666666666666666666666666666666666663mDSDDDDDDDh<6666666666666666666666666666666:$FFFFFFFFFFFFF",
"FFFFFFFFFFFFF666666666666666666666666666666666666666666666666666666663nDDDDDDDDx666666666666666666666666666666661&FFFFFFFFFFFFFF",
"FFFFFFFFFFFFFF66666666666666666666666666666666666666666666666666666663nDDDDDDDc736366666666666666666666666666362*FFFFFFFFFFFFFFF",
"FFFFFFFFFFFFFFF6666666666666666666666666666666666666666666666666666663mDDDDDSg336666666666666666666666666666632-FFFFFFFFFFFFFFFF",
"FFFFFFFFFFFFFFF6666666666666666766666666666666666666666666666666666666nDDDSbr<66666666666666666666666666666666:$FFFFFFFFFFFFFFFF",
"FFFFFFFFFFFFFFFF66666666666666666666666666666666666666666666666666666<mDVly6<76666666666666666666666666666666:&FFFFFFFFFFFFFFFFF",
"FFFFFFFFFFFFFFFFF66666666666666666666666666666666666666666666666666666uy8<<666366666666666667666666666666666>&FFFFFFFFFFFFFFFFFF",
"FFFFFFFFFFFFFFFFFF6666666666666666666666666666766666666666666666666666<<66666666666666666666666666666666636>*FFFFFFFFFFFFFFFFFFF",
"FFFFFFFFFFFFFFFFFFF666666666666666666666666666666666666666666666666666676666666666666666666666666666666663>=FFFFFFFFFFFFFFFFFFFF",
"FFFFFFFFFFFFFFFFFFFF6666666666666666666666666666666666666666666666666666666666666666666666666666666666666>*FFFFFFFFFFFFFFFFFFFFF",
"FFFFFFFFFFFFFFFFFFFFF66666666666666666666666666666666666666666666666666666666666666666666666666666666666:*FFFFFFFFFFFFFFFFFFFFFF",
"FFFFFFFFFFFFFFFFFFFFFF666666666666666666666666666666666666666666666666666666666666666666666666666666666:*FFFFFFFFFFFFFFFFFFFFFFF",
"FFFFFFFFFFFFFFFFFFFFFFFF666666666666766666666666666666666666666666666666666666666666666666666666663665;FFFFFFFFFFFFFFFFFFFFFFFFF",
"FFFFFFFFFFFFFFFFFFFFFFFFF6666666666666666666666666666666666666666666666666666766666666666666666656662=FFFFFFFFFFFFFFFFFFFFFFFFFF",
"FFFFFFFFFFFFFFFFFFFFFFFFFF6666666666666666666666666666666666666666666666666666666666666666666626666>=FFFFFFFFFFFFFFFFFFFFFFFFFFF",
"FFFFFFFFFFFFFFFFFFFFFFFFFFFF6666566666666666666666666666666666666666666666666666666666666666636664:FFFFFFFFFFFFFFFFFFFFFFFFFFFFF",
"FFFFFFFFFFFFFFFFFFFFFFFFFFFFF66666666666666666666666766666666666666666666666666666666666666666631-FFFFFFFFFFFFFFFFFFFFFFFFFFFFFF",
"FFFFFFFFFFFFFFFFFFFFFFFFFFFFFFF6666666666666666666666666666666666666666666666666666666666666661>FFFFFFFFFFFFFFFFFFFFFFFFFFFFFFFF",
"FFFFFFFFFFFFFFFFFFFFFFFFFFFFFFFF6656666666666666666666666666666666666666666666666666666666662>-FFFFFFFFFFFFFFFFFFFFFFFFFFFFFFFFF",
"FFFFFFFFFFFFFFFFFFFFFFFFFFFFFFFFFF666666266666666666666666666666666666666666666666656666665>:FFFFFFFFFFFFFFFFFFFFFFFFFFFFFFFFFFF",
"FFFFFFFFFFFFFFFFFFFFFFFFFFFFFFFFFFFF666666666666666666666666666666666666666666666366666651:FFFFFFFFFFFFFFFFFFFFFFFFFFFFFFFFFFFFF",
"FFFFFFFFFFFFFFFFFFFFFFFFFFFFFFFFFFFFFF6666666666666666666666666666666666666666666666664>:FFFFFFFFFFFFFFFFFFFFFFFFFFFFFFFFFFFFFFF",
"FFFFFFFFFFFFFFFFFFFFFFFFFFFFFFFFFFFFFFFFF63666666666666666666666666666666666666666651>FFFFFFFFFFFFFFFFFFFFFFFFFFFFFFFFFFFFFFFFFF",
"FFFFFFFFFFFFFFFFFFFFFFFFFFFFFFFFFFFFFFFFFFFF666666666666666366666666663666666663541FFFFFFFFFFFFFFFFFFFFFFFFFFFFFFFFFFFFFFFFFFFFF",
"FFFFFFFFFFFFFFFFFFFFFFFFFFFFFFFFFFFFFFFFFFFFFFF66666666666666666666666666666322>FFFFFFFFFFFFFFFFFFFFFFFFFFFFFFFFFFFFFFFFFFFFFFFF",
"FFFFFFFFFFFFFFFFFFFFFFFFFFFFFFFFFFFFFFFFFFFFFFFFFFFF66666666626666636636222FFFFFFFFFFFFFFFFFFFFFFFFFFFFFFFFFFFFFFFFFFFFFFFFFFFFF",
"FFFFFFFFFFFFFFFFFFFFFFFFFFFFFFFFFFFFFFFFFFFFFFFFFFFFFFFFFFF446622224FFFFFFFFFFFFFFFFFFFFFFFFFFFFFFFFFFFFFFFFFFFFFFFFFFFFFFFFFFFF"
};
