/* XPM */
static char *adf9a4a7874b4c15fd61b21a0130ffb6[] = {
/* columns rows colors chars-per-pixel */
"24 24 190 2 ",
"   c #D28E0D",
".  c #D5910D",
"X  c #DE970E",
"o  c #DF970E",
"O  c #DF980F",
"+  c #E1980E",
"@  c #E2990E",
"#  c #E3990E",
"$  c #E39A0E",
"%  c #E49A0E",
"&  c #EA9F0F",
"*  c #E49D12",
"=  c #E99E10",
"-  c #ECA00F",
";  c #EFA20F",
":  c #EFA30F",
">  c #FFA200",
",  c #FFA400",
"<  c #FEA600",
"1  c #FFA600",
"2  c #FEA700",
"3  c #FFA700",
"4  c #FEA701",
"5  c #FFA701",
"6  c #FFA702",
"7  c #FFA802",
"8  c #FFA902",
"9  c #FEA803",
"0  c #FFA803",
"q  c #FFAA03",
"w  c #FFA804",
"e  c #FFA905",
"r  c #FFA906",
"t  c #FFA907",
"y  c #FFAA07",
"u  c #F7A70B",
"i  c #F0A30F",
"p  c #F1A30F",
"a  c #F1A40F",
"s  c #FFA908",
"d  c #FFAA0A",
"f  c #FEAB0B",
"g  c #FFAB0B",
"h  c #FEAB0C",
"j  c #FFAB0C",
"k  c #FFAB0D",
"l  c #FFAD0C",
"z  c #FEAC0E",
"x  c #FFAC0E",
"c  c #FEAC0F",
"v  c #FFAC0F",
"b  c #F2A410",
"n  c #F3A510",
"m  c #F7A710",
"M  c #F4A713",
"N  c #F8A810",
"B  c #F8A910",
"V  c #F9A910",
"C  c #FAA910",
"Z  c #FBAA10",
"A  c #FCAB10",
"S  c #FCAB11",
"D  c #FDAC10",
"F  c #FEAC10",
"G  c #FFAC10",
"H  c #FEAD10",
"J  c #FFAD10",
"K  c #FEAC11",
"L  c #FEAD11",
"P  c #FFAD11",
"I  c #FEAE11",
"U  c #FFAE11",
"Y  c #FFAF11",
"T  c #FDAC12",
"R  c #FDAD12",
"E  c #FDAC13",
"W  c #FDAD13",
"Q  c #FEAD12",
"!  c #FFAD12",
"~  c #FEAD13",
"^  c #FFAD13",
"/  c #FFAE13",
"(  c #FEAD14",
")  c #FEAE14",
"_  c #FFAE14",
"`  c #FFAF16",
"'  c #FFAF17",
"]  c #FFAF18",
"[  c #FFB115",
"{  c #FFB01B",
"}  c #FEB11D",
"|  c #FFB323",
" . c #FFB324",
".. c #FFB325",
"X. c #FFB426",
"o. c #FFB427",
"O. c #FFB529",
"+. c #FEB52B",
"@. c #FFB62B",
"#. c #FFB72C",
"$. c #FFB72E",
"%. c #FFB833",
"&. c #FFBA37",
"*. c #FFBB3C",
"=. c #FFBD41",
"-. c #FEBF46",
";. c #FFBF46",
":. c #FFC048",
">. c #FFC352",
",. c #FFC454",
"<. c #FFC455",
"1. c #FFC456",
"2. c #FFC558",
"3. c #FEC65A",
"4. c #FEC65C",
"5. c #FFC65C",
"6. c #FFCA66",
"7. c #FFCB69",
"8. c #FFCC6B",
"9. c #FFCC6C",
"0. c #FFCE73",
"q. c #FFCF76",
"w. c #FED17A",
"e. c #FFD17B",
"r. c #FED27F",
"t. c #FFD380",
"y. c #FFD483",
"u. c #FFD585",
"i. c #FFD586",
"p. c #FFD688",
"a. c #FFD68A",
"s. c #FFD78C",
"d. c #FFD88F",
"f. c #FFD992",
"g. c #FFD993",
"h. c #FFDA95",
"j. c #FFDA96",
"k. c #FFDB98",
"l. c #FFDC9A",
"z. c #FFDD9D",
"x. c #FFDEA0",
"c. c #FFDEA1",
"v. c #FFE0A7",
"b. c #FFE0A8",
"n. c #FFE1A9",
"m. c #FFE2AB",
"M. c #FFE2AC",
"N. c #FFE3B0",
"B. c #FFE4B0",
"V. c #FFE4B1",
"C. c #FFE5B4",
"Z. c #FFE9C2",
"A. c #FFEAC4",
"S. c #FFEBC5",
"D. c #FFEBC6",
"F. c #FFEBC7",
"G. c #FFECC9",
"H. c #FFEDCC",
"J. c #FFEECE",
"K. c #FFEECF",
"L. c #FFF0D4",
"P. c #FFF1D6",
"I. c #FFF1D8",
"U. c #FFF1D9",
"Y. c #FFF2D9",
"T. c #FFF3DD",
"R. c #FFF4E0",
"E. c #FFF4E1",
"W. c #FFF5E2",
"Q. c #FFF5E4",
"!. c #FFF7E8",
"~. c #FFF7E9",
"^. c #FFF7EA",
"/. c #FFF8EA",
"(. c #FFF8EB",
"). c #FFF8EC",
"_. c #FFF9EE",
"`. c #FFF9EF",
"'. c FloralWhite",
"]. c #FFFAF1",
"[. c #FFFBF4",
"{. c #FFFCF7",
"}. c #FFFDFA",
"|. c #FFFDFB",
" X c #FFFEFC",
".X c #FFFEFD",
"XX c #FFFEFE",
"oX c #FEFFFF",
"OX c gray100",
"+X c None",
/* pixels */
"+X+X+X+X+X+X+X+X+X: a a a : @ +X+X+X+X+X+X+X+X+X",
"+X+X+X+X+X+Xn V z E E Y Y Y E V :   +X+X+X+X+X+X",
"+X+X+X+X+XA E z E z E z z z z E Y A @ +X+X+X+X+X",
"+X+X+X+XE Y E E E z E z E E E z z E Y - +X+X+X+X",
"+X+X+XE e e E z Y E E z E Y E z E E E [ = +X+X+X",
"+X+XE e :.B.X.z z E Y E z z E [ E 3 3 3 z O +X+X",
"+XE f +._. X| 3 [ E 3 e E z E 3 { ,.w.t.#.u +X+X",
"+X) 3 w.oX!.,.N.T.Y.v.:.e E e 8.~.oXoXoX4.3 * +X",
"A ) 3 i.oXW.d.oXoXoXoXoXa.3 u.oXoX|.}.oX2.3 M +X",
"A ) 3 i.oXE.g.~.j.l.!.oXoX0.L.oX!.6.&.*.} A A . ",
"E E 3 i.oX~.5.| 3 3  .P.oXF.z.oX*.3 f e z E z o ",
"E E 3 i.oX[. .e ) { 3 ,.oX).g.C.3 [ E E E z Y @ ",
"z ) 3 i.oX'.+.x E ) f *.oX}.j.j.3 z z E z z Y @ ",
"E Y 3 9.oXoX:.3 ) ) > 6.oX'.t.~.F.P.8.3 [ E z @ ",
"E E f X._.oXY.+.3 w %.T.oXZ.i.oX XoXy.3 ) E E X ",
"z E ) 3 i.oXoX(.b.B.'.oXoX0.T.F.=.,.#.f E E V +X",
"+XE E z z b.oXoXoXoX XoXa.g.oXl.> e f z z Y : +X",
"+XE z E z e 5.M.F.F.b.>.3 H.oXz.e ] E E E z +X+X",
"+X+XE z E E 3 3 f f e 3 z K.oX8.3 E E z E a +X+X",
"+X+X+XE Y E ) ) E E ) Y z K.x.f E E z Y V +X+X+X",
"+X+X+X+XE z z E Y z E E E | y z E z E V +X+X+X+X",
"+X+X+X+X+XE E Y E z z Y z z E z Y E V +X+X+X+X+X",
"+X+X+X+X+X+Xz E E E Y z Y E z E z m +X+X+X+X+X+X",
"+X+X+X+X+X+X+X+X+Xz E z E z E +X+X+X+X+X+X+X+X+X"
};
