/* XPM */
static char *a85eec3936a74254c731d13c37af69ae[] = {
/* columns rows colors chars-per-pixel */
"64 64 59 1 ",
"  c #A6700A",
". c #AD750B",
"X c #B0770B",
"o c #B4790B",
"O c #BA7E0B",
"+ c #BE800C",
"@ c #C2840C",
"# c #C8870D",
"$ c #CB890C",
"% c #D28E0D",
"& c #D7920D",
"* c #DB950E",
"= c #E59B0E",
"- c #EA9E0F",
"; c #EDA10F",
": c #FFA701",
"> c #FFA805",
", c #F2A40F",
"< c #FFAB0C",
"1 c #F6A610",
"2 c #FFAD11",
"3 c #FFAF18",
"4 c #FFB011",
"5 c #FFB01D",
"6 c #FFB323",
"7 c #FFB62E",
"8 c #FFB730",
"9 c #FFB834",
"0 c #FFBB3D",
"q c #FFBE43",
"w c #FFC14C",
"e c #FFC352",
"r c #FFC65C",
"t c #FFC965",
"y c #FFCC6C",
"u c #FFCE72",
"i c #FFD17C",
"p c #FFD483",
"a c #FFD68A",
"s c #FFD88F",
"d c #FFD993",
"f c #FFDC9A",
"g c #FFDFA3",
"h c #FFE0A7",
"j c #FFE2AC",
"k c #FFE5B5",
"l c #FFE7BB",
"z c #FFE8BE",
"x c #FFEAC5",
"c c #FFEDCC",
"v c #FFEFD1",
"b c #FFF1D7",
"n c #FFF2DC",
"m c #FFF5E4",
"M c #FFF7EA",
"N c #FFF9EE",
"B c #FFFBF4",
"V c #FFFEFE",
"C c None",
/* pixels */
"CCCCCCCCCCCCCCCCCCCCCCCCCCC$%%%%%$$+CCCCCCCCCCCCCCCCCCCCCCCCCCCC",
"CCCCCCCCCCCCCCCCCCCCCCC*=;,112222<1;;=&$+CCCCCCCCCCCCCCCCCCCCCCC",
"CCCCCCCCCCCCCCCCCCCC=;124222222222224242;*#XCCCCCCCCCCCCCCCCCCCC",
"CCCCCCCCCCCCCCCCCC;1222222222<22222<2222442=%oCCCCCCCCCCCCCCCCCC",
"CCCCCCCCCCCCCCCC;12222242222222222222222<2224;%XCCCCCCCCCCCCCCCC",
"CCCCCCCCCCCCCC-1222<<22<22222222222222222222<22=@CCCCCCCCCCCCCCC",
"CCCCCCCCCCCCC,22222222222222222222222222222222221%.CCCCCCCCCCCCC",
"CCCCCCCCCCCC12222222222222222222222222222222222244=oCCCCCCCCCCCC",
"CCCCCCCCCC;222<222222222222222222222224222222222224;+CCCCCCCCCCC",
"CCCCCCCCC,122222222222222242222222222222222222242222,+CCCCCCCCCC",
"CCCCCCCC122222222222222222222222222<22224<222222222241+CCCCCCCCC",
"CCCCCCC,2222222222222222222222222224222222222222222224,oCCCCCCCC",
"CCCCCCC222222222222222222222222222222222222222222222222;XCCCCCCC",
"CCCCCC142222<:232222222222222222222222222222222222222224* CCCCCC",
"CCCCC122222>3avM0<222222222222222222224224222222222222222$CCCCCC",
"CCCCC22222>9mVVV0>222422224222224222222222222224322222224,OCCCCC",
"CCCC2222225nVVVV0<2222222222222222222222222222<:::::::2222*CCCCC",
"CCC122222:fVVVVV0>2222<<><222222222222222222:28ridffay32221+CCCC",
"CCC22222<7BVVVVVq<2:>27006<:<2222222222222:6icBVVVVVVV0<222= CCC",
"CCC22222:iVVVVVV0:6tjnBVVBxaq2:222222222>2pMVVVVVVVVBV0>2221+CCC",
"CC222222>jVVVVVV9eBVVVVVVVVVVvr<>322222:9vVVVVVVVVVVVV0>2224&CCC",
"CC222222:jVVVVVV7uVBVVVVVVVVVVVx9:2222>wMVVVVVVVVVVVVV0>2122,XCC",
"C2222222>jVVVVVV9uVVVVVVVVVVVVVVBr:32:qBVVVVVVVVBVVVVV0<22222#CC",
"C2222222:jVVVVVV7uVBVVVVVVVVVVVVVVr:26mVVVVVVVVVVVVVVV0>22224*CC",
"C2222222>jVVVVVV7uVVVVVVVVVVVVVVVVB0:kVVVVVVVVMhuyyuyu5<22222;.C",
"C2222223>jVVVVVV7uVVVvfashnVVVVVVVVv<jVVVVVVVd5::::>::22222241+C",
"12222222:jVVVVVV7uVzq2>:::2rmVVVVVVVt7VVVVVVr:2223224222222222$C",
"22222222:jVVVVVV7ij>>222322:6vVVVVVVb>lVVVVu:22222222222222222%C",
"22222222:jVVVVVV062222222222>6MVVVVVV0rVVVl>222222222222222224*C",
"22222222>jVVVVVVq:22222222223:rVVVVVVa3VVVq>322222222222222124= ",
"22222222>jVVVVVV0<2222222422222xVVVVVx>vVc22222222222242222224=.",
"22222222:jVVVVVVq>222222222222:iVBVVVm2gVf:2222222222222222222;.",
"22222223:jVVVVVV0<222222222222:uVVVVVB3aVh:2222222222222222224-.",
"22222223:jVVVVVVq>222222222222:iVVVVVV6iVg:3222222222222222222-.",
"22222222:jVVVVVV0>222222222223:fVVVVVV5iVg:22<<<22222224222222-.",
"22222222:aVVVVVVt:3222222222222xVVVVVM<fVMcvvvvvbq:22222422222=C",
"22222222>wVVVVVVv<22222222222<0VVVVVVk:zVVVVVVVVVe>22222222222*C",
"2222222222nVVVVVVp:2222222222:gVVVVBVu2MVVVVVVVVVw>22222222222%C",
"C22222222:sVVVVVVVt:22222222:uVVVVVVB6qVVVVVBVVBVe>22222222222$C",
"C22122222<9BVVVVVVVi>:<22>:5dVVVVVVVk:hVVVVVVVVVVe>2222222222,@C",
"C222222222>dVVVVVVVVct756qaMVVVVVVVV05BVVMjlkkkkl0>2222222214-CC",
"C22222222225nVVVVVVVVVVMBVVVVVVVVVVg:gVBVg:<><><>2222222222<4*CC",
"CC222222222>eVVVVVVVVVVVVVBVVVVVBVm2wVVBVg:2232222<2222222221$CC",
"CC2222222222:uVVVVVVVVVVVVVVVVVVVB83MVVVVj>22222222422222222;CCC",
"CCC2222222222:tBVVVVVVVVVVVVVBVVm0:lVVVVVh:22222222222222222&CCC",
"CCC22222222222:0xVVVVVBVVVVVVVVh3:3nVVVBVh>2222222222222222,@CCC",
"CCC222222222222<<ejMVVVVVVVVmf0:222bVVVVVh:3224222222222222*CCCC",
"CCCC2222222222222>>5qruaspt03:>3222nVVVVVh:222224222222222,CCCCC",
"CCCCC22222222222222<>::::::>2222222nVVVVVu:222222222222222*CCCCC",
"CCCCC222222222222222232432242222222nVVVVM6<22224222222222-CCCCCC",
"CCCCCC22222222222222222222222222222nVVVVu:422222222222241%CCCCCC",
"CCCCCCC2222222222222222222222222222bVVVf<222222222222221*CCCCCCC",
"CCCCCCC2222222222222222222222242222bVMu>22222<222222222=CCCCCCCC",
"CCCCCCCC222222222222222222222222222au5:222222222422222-CCCCCCCCC",
"CCCCCCCCC22222222222222222222222222>:2222222222222222;CCCCCCCCCC",
"CCCCCCCCCC222222222222222224222222222222222222222222;CCCCCCCCCCC",
"CCCCCCCCCCCC222222222222222222222222222222222222222-CCCCCCCCCCCC",
"CCCCCCCCCCCCC2222222222222222222222222222222222221=CCCCCCCCCCCCC",
"CCCCCCCCCCCCCC222222222222222222222222222222<222,CCCCCCCCCCCCCCC",
"CCCCCCCCCCCCCCCC2222222222222<22222222222222221;CCCCCCCCCCCCCCCC",
"CCCCCCCCCCCCCCCCCC222222222222222222222222221,CCCCCCCCCCCCCCCCCC",
"CCCCCCCCCCCCCCCCCCCC22222222222222222222221,CCCCCCCCCCCCCCCCCCCC",
"CCCCCCCCCCCCCCCCCCCCCCC222222222222222121CCCCCCCCCCCCCCCCCCCCCCC",
"CCCCCCCCCCCCCCCCCCCCCCCCCCC<21<22121CCCCCCCCCCCCCCCCCCCCCCCCCCCC"
};
