/* XPM */
static char *b68cdb9a108a49d1ed780a2e231e6b11[] = {
/* columns rows colors chars-per-pixel */
"96 96 62 1 ",
"  c #A36E0A",
". c #A6700A",
"X c #AC750A",
"o c #B0770B",
"O c #B47A0B",
"+ c #BA7E0B",
"@ c #BE810C",
"# c #C4850C",
"$ c #CD8B0D",
"% c #D18E0D",
"& c #D6910D",
"* c #DB940E",
"= c #E0970E",
"- c #E49A0E",
"; c #EA9E0F",
": c #EDA00F",
"> c #FFA601",
", c #FFA804",
"< c #F2A40F",
"1 c #FFAB0C",
"2 c #F5A610",
"3 c #FFAD11",
"4 c #FFAF19",
"5 c #FFB01D",
"6 c #FFB222",
"7 c #FFB62D",
"8 c #FFB730",
"9 c #FFB934",
"0 c #FFBB3C",
"q c #FFBE44",
"w c #FFBF48",
"e c #FFC14D",
"r c #FFC353",
"t c #FFC65C",
"y c #FFC85F",
"u c #FFC965",
"i c #FFCC6C",
"p c #FFCE74",
"a c #FFD077",
"s c #FFD17C",
"d c #FFD485",
"f c #FFD68B",
"g c #FFD88F",
"h c #FFDA95",
"j c #FFDC9B",
"k c #FFDEA1",
"l c #FFE0A6",
"z c #FFE2AB",
"x c #FFE4B3",
"c c #FFE7BA",
"v c #FFE8BD",
"b c #FFEAC5",
"n c #FFEDCC",
"m c #FFEFD1",
"M c #FFF0D4",
"N c #FFF2DA",
"B c #FFF5E4",
"V c #FFF7E9",
"C c #FFF8ED",
"Z c #FFFBF3",
"A c #FFFEFE",
"S c None",
/* pixels */
"SSSSSSSSSSSSSSSSSSSSSSSSSSSSSSSSSSSSSSSSSSS@@@@@@@@@SSSSSSSSSSSSSSSSSSSSSSSSSSSSSSSSSSSSSSSSSSSS",
"SSSSSSSSSSSSSSSSSSSSSSSSSSSSSSSSSSSSS$%*=-:::<<<<:-**&&$@@SSSSSSSSSSSSSSSSSSSSSSSSSSSSSSSSSSSSSS",
"SSSSSSSSSSSSSSSSSSSSSSSSSSSSSSSSS$&=:<233333333333333332:-*$@oSSSSSSSSSSSSSSSSSSSSSSSSSSSSSSSSSS",
"SSSSSSSSSSSSSSSSSSSSSSSSSSSSSS%*:<33333333333333333333333333:=$@XSSSSSSSSSSSSSSSSSSSSSSSSSSSSSSS",
"SSSSSSSSSSSSSSSSSSSSSSSSSSSS*-233333333333333333333333333133333:*#oSSSSSSSSSSSSSSSSSSSSSSSSSSSSS",
"SSSSSSSSSSSSSSSSSSSSSSSSSS*;3333123333333333333333333333333333333<-#OSSSSSSSSSSSSSSSSSSSSSSSSSSS",
"SSSSSSSSSSSSSSSSSSSSSSSS=:333331333333333333333333333333333333333333-$XSSSSSSSSSSSSSSSSSSSSSSSSS",
"SSSSSSSSSSSSSSSSSSSSSS=:3333332333333333333333333333333333333333333332=@XSSSSSSSSSSSSSSSSSSSSSSS",
"SSSSSSSSSSSSSSSSSSSSS:<331333333333333333333333333333333333333333333333<%OSSSSSSSSSSSSSSSSSSSSSS",
"SSSSSSSSSSSSSSSSSSSS:3333333333333333333333333333333333333333333333133333-@ SSSSSSSSSSSSSSSSSSSS",
"SSSSSSSSSSSSSSSSSS;2333333333333333333333333333333333333333333333333333331<$XSSSSSSSSSSSSSSSSSSS",
"SSSSSSSSSSSSSSSSS:3313333333333333333333333333333333333333333333333333333333*OSSSSSSSSSSSSSSSSSS",
"SSSSSSSSSSSSSSSS<333333333333333333333333333333333333333333333333333333333333-OSSSSSSSSSSSSSSSSS",
"SSSSSSSSSSSSSSS233333333333333333333333333333333333333333333333333333333332333;@ SSSSSSSSSSSSSSS",
"SSSSSSSSSSSSSS23333333333333333333333333333333333333333333333333333333333333333:+ SSSSSSSSSSSSSS",
"SSSSSSSSSSSSS2333333333333333333333333333333333333333333333333333333333333333333:+SSSSSSSSSSSSSS",
"SSSSSSSSSSSS233333333333333333333333333333333333333333333333333333333333333333331;OSSSSSSSSSSSSS",
"SSSSSSSSSSS23333333333333333333333333333333333333333333333333333333333333333333333-OSSSSSSSSSSSS",
"SSSSSSSSSS2333333333333333333333333333333333333333333333333333333333333333333333333*XSSSSSSSSSSS",
"SSSSSSSSS<33133333133333333333313333333333333333333333333333333333333333333333333333%.SSSSSSSSSS",
"SSSSSSSSS23333333131>1443333333333333333333333333333333333333333333333333333333333312# SSSSSSSSS",
"SSSSSSSS2331333334,4ixMVw,33333333333333333333333333333333333333333333333333333333333;OSSSSSSSSS",
"SSSSSSS2333333333,eNAAAAr>333333333333333333333333333333333333333333333333333333333331*.SSSSSSSS",
"SSSSSSS333333333>iZAAAAAr>3333333333333333333333333333333333333333313334333333333333332#SSSSSSSS",
"SSSSSS323333333,rAAAAAAAr,3333333333333333333333333333333333333333333333333333333333333=XSSSSSSS",
"SSSSSS3313333316NAAAAAAAr>33333333333333333333333333333333333333333331,>,133333,>3333313$ SSSSSS",
"SSSSS312333333>gAAAAAAAAr,33333333333333333143333333333333333333333>37tdlbmNNmbzf7133333:OSSSSSS",
"SSSSS1333333117VAAAAAAAAr,33433,,,111,,,1333313333333333333333331,7sbZAAAAAAAAAAAe>333333$.SSSSS",
"SSSS333333334>aAAAAAAAAAr,43>>4qphzcvlde61>13333333333333333333,0kZAAAAAAAAAAAAZAe1333133:OSSSSS",
"SSSS3333333331bAZAAAAAAAr,14rkNAAAAAAAAACxi7,,33333333333333315jZAAAAAAAAAAAAAAAAw,3333333$ SSSS",
"SSS23333333316VAAAAAAAAAr>uNAAAAAAAZAAAAAAACk0,1333333333333>eNAAAAAAAAAAAAAAAAAAe,3333333-oSSSS",
"SSS33333333316VAAAAAAAAAr>cAAAAAAAAAAAAAAAAAAZk7,3333333333,aZAAAAAAAAAAAAAAAAAAAe,33333332@SSSS",
"SSS33333333336VAAAAAAAAAr>xAAAAAAAAAAAAAAAAAAAAVu,33333333,fAAAAAAAAAAAAAAAAAAAAAe,33333133%.SSS",
"SS333333333316VAAAAAAAAAr>xAAAAAAAAAAAAAAAAAAAAAAh1331333,fAAAAAAAAAAAAAAAAAAAAAAe,33333323;OSSS",
"SS333333333315VAAAAAAAAAr>xAAAAAAAAAAAAAAAAAAAAAAAz31414>iAAAAAAAAAAAAAAAAAAAZAAAe>333333333@SSS",
"SS133333333316VAAAAAAAAAr>zAAAAAAAAAAAAAAAAAAAAAAAAz114,qZAAAAAAAAAAAAAAAAAAAAAAAr,333333331%.SS",
"S2133333333316VAAAAAAAAAr>xAZAAAAAAAAAAAAAAAAAAAAAZAf,35nAAAAAAAAAAAAAAMzjjjjhjhj91333333333-XSS",
"S3333333333316VAAAAAAAAAr>xAAAAAAAAAAAAAAAAAAAAAAAAAAt>tAAAAAAAAAAAAZjq4,,>1>,,1,13333333333:@SS",
"S1333331433315VAAAAAAAAAr>xAAAACzaterudxZAAAAAAAAAAAAN43mAAAAAAAAAAb0>,3333333334133333333333#SS",
"S3333333333336VAAAAAAAAAr>xAAVa6,>,,,>>19jAAAAAAAAAAAAd>uAAAAAAAAAz31333333333333313343333333$SS",
"S3333333333316VAAAAAAAAAr>xAx6>3333334331>rCAAAAAAAAAAB54MAAAAAAAx113333333333333333333333333*.S",
"33333333333316VAAAAAAAAAr>vl,3333333313334>0VAAAAAAAAAAp>fAAAAAAM5133333333333333333333333333-oS",
"33233333333316VAAAAAAAAAr>u4133333333333334>wZAAAAAAAAAb,0AAAAAAe,313333333333333333333333333:+S",
"33333333333316VAAAAAAAAAr,133333333333333333>sAAAAAAAAAA9,bAAAAz13333333333333333333333333333:@S",
"33133333333316VAAAAAAAAAr>43333333333333333313nAAAAAAAAAi>gAZAAq13333333333333333333333333333<@S",
"33333333333336VAAAAAAAAAr,3133333333333333333,tAAAAAAAZAk>tAAAb1333333333333333333333333333333@ ",
"33333333333315VAAAAAAAAAr>313333333333433333313MAAAAAAAAn,9AAAf>433333333333333333333333333133@ ",
"33333333333316VAAAAAAAAAr133333333333333333334,xAAAAAAAAB44BAAs>333333333333113333333333333333# ",
"33333333333316VAAAAAAAAAr,33333333333333333333>zAAAAAAAAZ71mAAs>333333333333333333333333333333# ",
"33333333333316VAAAAAAAAAr>33333333333333333333,zAAAAAAAAA9>bAAs>433333333333333333333333133332$ ",
"33333333333336VAAAAAAAAAr,333333333333333333331xAAAAAAAAA0>cAAs,433334334333333333333333333333$ ",
"33333333333316VAAAAAAAAAe1333333333333333333333nAAAAAAAAA9>bAAa>1,,,>>>,>>33333333333333333332#S",
"33333333333334NAAAAAAAAAt>333333333333333333336VAAAAAAAAZ71nAAjwewreeeeeww33333333333333333332@S",
"3333333333333,xAAAAAAAAAz,3333333333333333333,rAAAAAAAAAM33NAAAAAAAAAAAAAN4333333333333333333<@S",
"3333333333333>aAAAAAAAAAZ81333333333333333333,jAAAAAAAAAk>8ZAAAAAAAAAAAZAN3333333333333333333:+S",
"S333333333333,9AAAAAAAAAAx,3333333333333333317CAAAAAAAAAi>rAAAAAAAAAAAAAAN4333333333333333123-OS",
"S33333333333331bAAAAAAAAAAp>3333333333333333,kAAAAAAAAAZ8>fAAAAAAAAAAAAAAN3333333333333333333&SS",
"S3333333433334>pAAAAAAAAAAAr,33333333333333>iAAAAAAAAAAc13bAAAAAAAAAAAAAAM5333333333333333333%SS",
"S333333313333316BAAAAAAAAAAZt>333333333331>iAAAAAAAAAAAu>0AAAAAAAAAAAAAAAM5333333333333333333#SS",
"S33333333333333>dAAAAAAAAAAAAs1>33433331>7zAAAAAAAAAAAN5>fAAAAAAAAAAAAAAAN333333333333333333:@SS",
"SS333333333333316VAAAAAAAAAAAAnt51>>,,3qhZAAAAAAAAAAAAa>6BAAAAZZCZZZCZZCZn333333333333333333-OSS",
"SS33333333333334>pAAAAAAAAAAAAAANzfdflMZAAAAAAAAAAAAAN5>dAAAAAf59777777797333333333333333331&SSS",
"SS3333333333333313vAAAAAAAAAAAAAAAAAAAAAAAAAAAAAAAAAAt>8ZAAAAAs>3111113111133333333333333332$SSS",
"SSS3333333333331318VAAAAAAAAAAAAAAZAAAAAAAAAAAAAAAAAj,1xAAAAAAs>333333333333333333333333133;+SSS",
"SSS333333333333314>rZAAAAAAAAAAAAAAAAAAAAAAAAAAAAAAb4>pAAAAAAAs>333333333333333333333333333*SSSS",
"SSS3333333333333334>uAAAAAAAAAAAAAAAAAAAAAAAAAAAAAm6>wZAAAAAAAs>333333333333333333333333332#SSSS",
"SSSS3333333333333333>yZAAAAAAAAAAAAAAAAAAAAAAAAAAb6>7BAAAAAAAAs>33333333333333333333333333-@SSSS",
"SSSS33333333333333334>0MAAAAAAAAAAAAAAAAAAAAAAAAj33>uAAAAAAAZAs>33333333333333333333333131&SSSSS",
"SSSSS33333333333333333,4dZAAAAAAAAAAAAAAAAAAAAmr,35>tAAAAAAAAAs>3333333333333333333333333:@SSSSS",
"SSSSS3333333333333333331>7gNAAAAAAAAZAAAAAAAbu3,333>tAAAAAAAAAs>4333333333333333333333333*SSSSSS",
"SSSSSS33333333333333333333>4rfcMCZAAAAAZNxs01>33333,tAAAAAAAAAs>333333333333333333333333:@SSSSSS",
"SSSSSS3333333333333333333333>>1469errrq741>13333333>yAAAAAAAAAa>333333333333333333333333&SSSSSSS",
"SSSSSSS33333333333333333133333331,,,,,,133333333314>yAAAAAAAAAq,33333333333333333333333;SSSSSSSS",
"SSSSSSS33333333333333333333333333343433333333333334>uAAAAAAAAn3333333333333333333333332$SSSSSSSS",
"SSSSSSSS3333333333333333333333333333333333333333333>yAAAAAAAAi,33333333333333333333333=SSSSSSSSS",
"SSSSSSSSS333333333333333333333333333333333333333333,yAZAAAZAb433333333333333333333333;#SSSSSSSSS",
"SSSSSSSSS333333333333333333333333333333333333333333,yAAAAAAC0,33333333333333333333132%SSSSSSSSSS",
"SSSSSSSSSS33333333333333333333333333334333333333333,yAAAAACw,33333333333333333333333*SSSSSSSSSSS",
"SSSSSSSSSSS3333333333333333333333333333333333333333,yAAAAb8,33333333333333333333333*SSSSSSSSSSSS",
"SSSSSSSSSSSS333333333333333333333333333333333333314>uAZnu3133333333333333333333333-SSSSSSSSSSSSS",
"SSSSSSSSSSSSS33333333333333333333333333333333333333,0aq3>341333333333333333333333:SSSSSSSSSSSSSS",
"SSSSSSSSSSSSSS333333333333333333333333333333333333331,,3431333333333333333333233:%SSSSSSSSSSSSSS",
"SSSSSSSSSSSSSSS3333333333333333333333333333333333333343313333333333333333333133:%SSSSSSSSSSSSSSS",
"SSSSSSSSSSSSSSSS33333333333333333333333333333333333333333333333333333133333333:SSSSSSSSSSSSSSSSS",
"SSSSSSSSSSSSSSSSS333333333333333333333333333333333333333333333333333333331333;SSSSSSSSSSSSSSSSSS",
"SSSSSSSSSSSSSSSSSS3333333333333333333333333333333333333333333333333333333332-SSSSSSSSSSSSSSSSSSS",
"SSSSSSSSSSSSSSSSSSS33333333333333333333333333333333333333333333333333333332=SSSSSSSSSSSSSSSSSSSS",
"SSSSSSSSSSSSSSSSSSSSS3333333333333333333333333333333333333333333333333333:SSSSSSSSSSSSSSSSSSSSSS",
"SSSSSSSSSSSSSSSSSSSSSS3333333333333333333333333333333333333333333331333<-SSSSSSSSSSSSSSSSSSSSSSS",
"SSSSSSSSSSSSSSSSSSSSSSSS3333333333333333333333333333333333333333333332:SSSSSSSSSSSSSSSSSSSSSSSSS",
"SSSSSSSSSSSSSSSSSSSSSSSSSS333333333333333333333333333333333333333332<SSSSSSSSSSSSSSSSSSSSSSSSSSS",
"SSSSSSSSSSSSSSSSSSSSSSSSSSSS33331233333333333333333333333333133333:SSSSSSSSSSSSSSSSSSSSSSSSSSSSS",
"SSSSSSSSSSSSSSSSSSSSSSSSSSSSSS3333333133333333333333333333333332<SSSSSSSSSSSSSSSSSSSSSSSSSSSSSSS",
"SSSSSSSSSSSSSSSSSSSSSSSSSSSSSSSSS3333333333333333333333331322<SSSSSSSSSSSSSSSSSSSSSSSSSSSSSSSSSS",
"SSSSSSSSSSSSSSSSSSSSSSSSSSSSSSSSSSSSS333131313333333331332SSSSSSSSSSSSSSSSSSSSSSSSSSSSSSSSSSSSSS",
"SSSSSSSSSSSSSSSSSSSSSSSSSSSSSSSSSSSSSSSSSSS323323223SSSSSSSSSSSSSSSSSSSSSSSSSSSSSSSSSSSSSSSSSSSS"
};
