/* XPM */
static char *cf4db98af7444afac70ddbbd19c05b41[] = {
/* columns rows colors chars-per-pixel */
"48 48 57 1 ",
"  c #B0770B",
". c #B67C0B",
"X c #BB7E0B",
"o c #BE810C",
"O c #C3830C",
"+ c #C9880C",
"@ c #D28F0D",
"# c #D6910D",
"$ c #DB950E",
"% c #E0970E",
"& c #E49A0E",
"* c #E99E0F",
"= c #EDA10F",
"- c #FFA701",
"; c #FFA804",
": c #F2A40F",
"> c #FFAB0C",
", c #F5A610",
"< c #F7A810",
"1 c #FFAD11",
"2 c #FFAF19",
"3 c #FFB011",
"4 c #FFB01C",
"5 c #FFB221",
"6 c #FFB62C",
"7 c #FFB935",
"8 c #FFBB3B",
"9 c #FFBE43",
"0 c #FFBF48",
"q c #FFC14B",
"w c #FFC455",
"e c #FFC65B",
"r c #FFCA66",
"t c #FFCC6C",
"y c #FFCE73",
"u c #FFD077",
"i c #FFD17C",
"p c #FFD483",
"a c #FFD68B",
"s c #FFD88F",
"d c #FFDA94",
"f c #FFDD9C",
"g c #FFDFA3",
"h c #FFE0A6",
"j c #FFE2AB",
"k c #FFE4B3",
"l c #FFE8BF",
"z c #FFEAC4",
"x c #FFECC9",
"c c #FFEFD1",
"v c #FFF0D5",
"b c #FFF3DC",
"n c #FFF5E4",
"m c #FFF8EC",
"M c #FFFBF6",
"N c #FFFEFD",
"B c None",
/* pixels */
"BBBBBBBBBBBBBBBBBBBB$$%$$$@OBBBBBBBBBBBBBBBBBBBB",
"BBBBBBBBBBBBBBBB&=:1>133111,:&#OBBBBBBBBBBBBBBBB",
"BBBBBBBBBBBBB&:<1111111>1>13311,%+BBBBBBBBBBBBBB",
"BBBBBBBBBBBB,1111111>1111131111131&OBBBBBBBBBBBB",
"BBBBBBBBBB:<111>1111111111111111111<# BBBBBBBBBB",
"BBBBBBBBB<111111111111111111111111113=oBBBBBBBBB",
"BBBBBBBB<11>11111111111111111111111<13,OBBBBBBBB",
"BBBBBBB1111111111111111111111111111133><+BBBBBBB",
"BBBBBB1111111111111111111111111111111111<oBBBBBB",
"BBBBB11111;-11111111111111113111111111113:XBBBBB",
"BBBB<111>1wi5111>>111111133111111111111113%BBBBB",
"BBBB111>4zNN7>1133111111>>11111111211>>1311@BBBB",
"BBB11111zNNN7;2111111111111111111>->122<>11:XBBB",
"BB<111-tNNNN8;;->11;->121111113;;7ikvnbni;31#BBB",
"BB1111>xNNNN7>0slvcku7;;111111;7kNNNNNNNg-11,XBB",
"BB11114mNNNN7jNNNNNNNMk8;1111;yNNNNNNNNNg;111#BB",
"B1111>5mNNNN7xNMNNNNNNNNi;11-aNNNNNNNMNNf-213=BB",
"B111115mNNNN7xNNNNNNNNNNNf>-tNNNNNNNNNNNg-111<OB",
"B111115mNNNN7xNNNNNNNNNNNNy2MNNNNNbaewwe811111@B",
"11111>5mNNNN7xNgw78wkNNNNNM7zNNNNh2-;;;-;11113%B",
"1111114mNNNN8kq-->>;-rNNNNNawNMNj;>21211111111*B",
"11111>4mNNNN82;211112-yNNNNn6nNn4>11111111111>:.",
"1111115mNNNN7;11111111;zNNNN9hNp;1111111111113<X",
"1111115mNNNN7>11111111-tNNNNruN0;1111111111111<o",
"<1111>4mNNNN7>11111111;eNNNNieNq;2212111111111<o",
"11111>5mNNNN7>11111112-tNNNNawN8-;---111111111<o",
"1111112bNNNNq;11111112-dNNNNyrNkggggs211131111,o",
"111112-gNNNNj;211111111nNNNN8sNNNNNNm2>111131>:B",
"111111-wNNNNNy-112111-pNNNNn2xNNMNMNb211111111&B",
"B1111111vNNNNNu;--;-1aNNNNNa6NNNNNNNm2>1111111%B",
"B111112-rNNNNNNxyqwpbNNNNNN4fNNjasssi3>1111111@B",
"B1111111;kNNNNNNNNNNNNNNNNy7NNN8-;-;;11111111,BB",
"BB111111>2cNNNNNMNNMNNNNNg2vNNNq>212>31131111&BB",
"BB1111111>4lNNNNNNNNNNNNg-dNMNNq;11111111111>@BB",
"BB11111111>>tvNNNNNNNNzw;;kNNNNq;11111111111=BBB",
"BBB111111111-10tshjdy8>-2;jNNNN0;11111111111$BBB",
"BBBB1111111121--;----;331;jNNNm511111111113*BBBB",
"BBBB1111111111212312121>1;jNMNs-1111111111,BBBBB",
"BBBBB11111111111111111112;jNNz211111111111%BBBBB",
"BBBBBB1111111111111111111;jNs1>1111111111&BBBBBB",
"BBBBBBB111111111111111111175->1111111111=BBBBBBB",
"BBBBBBBB111111111111111111>111111111111=BBBBBBBB",
"BBBBBBBBB1111111111111111111111111111>=BBBBBBBBB",
"BBBBBBBBBB11111111111111111111111<311&BBBBBBBBBB",
"BBBBBBBBBBBB1111111111111111111<111:BBBBBBBBBBBB",
"BBBBBBBBBBBBB111111111111>1111111,BBBBBBBBBBBBBB",
"BBBBBBBBBBBBBBBB113>11111111111,BBBBBBBBBBBBBBBB",
"BBBBBBBBBBBBBBBBBBB>1>1<>11<BBBBBBBBBBBBBBBBBBBB"
};
