/* XPM */
static char *_ac65ebf6c2746d59b5d0d8cb13b8099[] = {
/* columns rows colors chars-per-pixel */
"16 16 141 2 ",
"   c #E49B0E",
".  c #FF9F00",
"X  c #E09911",
"o  c #E99F10",
"O  c #EDA10F",
"+  c #EEA10F",
"@  c #EEA20F",
"#  c #F1A004",
"$  c #FFA300",
"%  c #FCA600",
"&  c #FEA600",
"*  c #FFA600",
"=  c #FFA700",
"-  c #FEA701",
";  c #FFA701",
":  c #FEA702",
">  c #FFA702",
",  c #FFA800",
"<  c #FEA802",
"1  c #FFA802",
"2  c #FEA803",
"3  c #FFA804",
"4  c #FFA905",
"5  c #FFA906",
"6  c #FEA907",
"7  c #F1A30F",
"8  c #FAA708",
"9  c #FEAA08",
"0  c #FFAA08",
"q  c #FEAA09",
"w  c #FEAA0A",
"e  c #FFAA0A",
"r  c #FEAB0B",
"t  c #FEAB0C",
"y  c #FFAB0C",
"u  c #FEAB0D",
"i  c #FCAA0E",
"p  c #FEAB0E",
"a  c #FEAC0E",
"s  c #FFAC0E",
"d  c #FFAC0F",
"f  c #FFAD0F",
"g  c #F4A510",
"h  c #F4A610",
"j  c #F5A610",
"k  c #F6A710",
"l  c #F7A710",
"z  c #F8A810",
"x  c #FBAA10",
"c  c #FCAA10",
"v  c #FDAB10",
"b  c #FCAB11",
"n  c #FDAC10",
"m  c #FDAC11",
"M  c #FEAC10",
"N  c #FFAC10",
"B  c #FEAC11",
"V  c #FEAD11",
"C  c #FFAD11",
"Z  c #FFAE11",
"A  c #FDAD13",
"S  c #FEAD12",
"D  c #FFAD12",
"F  c #FEAD13",
"G  c #FFAD13",
"H  c #FFAE13",
"J  c #FBAB14",
"K  c #F8AA16",
"L  c #FEAE14",
"P  c #FFAE14",
"I  c #FEAE15",
"U  c #FEAE16",
"Y  c #FFAF17",
"T  c #FFB015",
"R  c #FEB11D",
"E  c #FFB11E",
"W  c #FEB221",
"Q  c #FEB222",
"!  c #FFB323",
"~  c #FEB425",
"^  c #FFB425",
"/  c #FEB52B",
"(  c #FFB52C",
")  c #FEB62D",
"_  c #FFB72F",
"`  c #FEB831",
"'  c #FFBC3D",
"]  c #FFBC3E",
"[  c #FEBD40",
"{  c #FFBD41",
"}  c #FFBE44",
"|  c #FFBF46",
" . c #FFC048",
".. c #FFC14C",
"X. c #FFC455",
"o. c #FEC75D",
"O. c #FFC95F",
"+. c #FFC861",
"@. c #FECB69",
"#. c #FFCC6C",
"$. c #FFCE73",
"%. c #FFCF76",
"&. c #FFD17A",
"*. c #FFD27D",
"=. c #FFD27E",
"-. c #FFD27F",
";. c #FFD381",
":. c #FFD484",
">. c #FFD88E",
",. c #FFD993",
"<. c #FFDA93",
"1. c #FFDB96",
"2. c #FFDC99",
"3. c #FFDD9E",
"4. c #FFDEA0",
"5. c #FFE2AD",
"6. c #FEE3AD",
"7. c #FFE3B0",
"8. c #FEE4B1",
"9. c #FEE5B3",
"0. c #FEE5B6",
"q. c #FEE6B6",
"w. c #FFE6B9",
"e. c #FFE7BA",
"r. c #FFE8BE",
"t. c #FFEBC7",
"y. c #FFEFD2",
"u. c #FFF0D6",
"i. c #FFF2DA",
"p. c #FFF3DD",
"a. c #FFF4E0",
"s. c #FFF5E3",
"d. c #FFF9F0",
"f. c FloralWhite",
"g. c #FFFBF5",
"h. c #FFFCF8",
"j. c #FFFDF9",
"k. c #FEFEFD",
"l. c #FEFFFF",
"z. c gray100",
"x. c None",
/* pixels */
"x.x.x.x.x.h h z h 7   x.x.x.x.x.",
"x.x.x.K c s V V V V s j x.x.x.x.",
"x.x.c 2 s I I V V c V T K X x.x.",
"x.i V @.R - 4 c V I i - 2 8 x.x.",
"x.- *.z._ } | V 9 4 ~ ;.q.O.# x.",
"I 2 q.d.6.z.z.s.' ' d.z.z.<.- x.",
"I 2 9.h.3.*.%.h.p.6.z.+./ W s o ",
"V 2 9.z.^ - $ X.z.e.*.. 9 s V O ",
"I - 6.z.R c 9 _ z.e.&.} ~ i V O ",
"I - $.z.:.- 3 <.z.2.j.z.o.- I 7 ",
"V s Y u.z.u.i.z.r.t.1.` W s c x.",
"x.V 9 W 3.s.s.>.| z.#.$ V V z x.",
"x.V V i - i s $ | z.} 9 V V x.x.",
"x.x.V V I V V s / } 4 V V h x.x.",
"x.x.x.V V V V V 9 9 V c x.x.x.x.",
"x.x.x.x.x.V V c V I c x.x.x.x.x."
};
